<svg xmlns="http://www.w3.org/2000/svg" xmlns:xlink="http://www.w3.org/1999/xlink" version="1.1" id="Capa_1" viewBox="0 0 460 460" xml:space="preserve" fill="#000000"><g id="SVGRepo_bgCarrier" stroke-width="0"></g><g id="SVGRepo_tracerCarrier" stroke-linecap="round" stroke-linejoin="round"></g><g id="SVGRepo_iconCarrier"> <g id="XMLID_1471_"> <path id="XMLID_1469_" style="fill:#886C3E;" d="M165,130h130v330l-65-50l-65,50V130z"></path> <path id="XMLID_1468_" style="fill:#A2864D;" d="M230,410l-65,50V130h65V410z"></path> <path id="XMLID_1467_" style="fill:#C19D5D;" d="M395,165c0,91.127-73.873,165-165,165S65,256.127,65,165S138.873,0,230,0 S395,73.873,395,165z"></path> <path id="XMLID_1463_" style="fill:#E9CC85;" d="M385,165c0,85.604-69.396,155-155,155S75,250.604,75,165S144.396,10,230,10 S385,79.396,385,165z"></path> <path id="XMLID_1462_" style="fill:#F9E8A0;" d="M365,165c0,74.558-60.442,135-135,135S95,239.558,95,165S155.442,30,230,30 S365,90.442,365,165z"></path> <path id="XMLID_1461_" style="fill:#89693F;" d="M353.75,165c0,68.345-55.405,123.75-123.75,123.75S106.25,233.345,106.25,165 S161.655,41.25,230,41.25S353.75,96.655,353.75,165z"></path> <path id="XMLID_1439_" style="fill:#E9CC85;" d="M275.107,100.886c6.316,0,11.436,5.12,11.436,11.436v43.871 c0,35.117-24.045,64.538-56.543,72.92c-32.499-8.382-56.543-37.804-56.543-72.92v-43.871c0-6.316,5.12-11.436,11.436-11.436 H275.107z"></path> <path id="XMLID_1406_" style="fill:#CBB175;" d="M286.543,112.322v43.871c0,35.117-24.045,64.538-56.544,72.92 c-13.794-3.557-26.036-10.934-35.591-20.899c39.122-22.958,67.901-61.609,77.676-107.329h3.023 C281.423,100.886,286.543,106.006,286.543,112.322z"></path> </g> </g></svg>